<mxfile host="app.diagrams.net" agent="Mozilla/5.0 (X11; Ubuntu; Linux x86_64; rv:135.0) Gecko/20100101 Firefox/135.0" version="26.0.16">
  <diagram id="zynq_fpga" name="Zynq FPGA System">
    <mxGraphModel dx="1510" dy="376" grid="1" gridSize="10" guides="1" tooltips="1" connect="1" arrows="1" fold="1" page="1" pageScale="1" pageWidth="827" pageHeight="1169" math="0" shadow="0">
      <root>
        <mxCell id="0" />
        <mxCell id="1" parent="0" />
        <mxCell id="conn2" style="edgeStyle=elbowEdgeStyle;rounded=1;entryX=0;entryY=0.25;entryDx=0;entryDy=0;exitX=1;exitY=0.25;exitDx=0;exitDy=0;" parent="1" edge="1">
          <mxGeometry relative="1" as="geometry">
            <mxPoint x="599.9999999999998" y="113.75" as="targetPoint" />
          </mxGeometry>
        </mxCell>
        <mxCell id="conn3" style="edgeStyle=elbowEdgeStyle;rounded=1;" parent="1" edge="1">
          <mxGeometry relative="1" as="geometry">
            <mxPoint x="699.9655172413793" y="300" as="targetPoint" />
          </mxGeometry>
        </mxCell>
        <mxCell id="2nprWiQmsi8HimYhADbn-79" style="edgeStyle=orthogonalEdgeStyle;rounded=0;orthogonalLoop=1;jettySize=auto;html=1;exitX=0.5;exitY=1;exitDx=0;exitDy=0;exitPerimeter=0;entryX=0.5;entryY=0;entryDx=0;entryDy=0;" parent="1" source="2nprWiQmsi8HimYhADbn-16" target="2nprWiQmsi8HimYhADbn-77" edge="1">
          <mxGeometry relative="1" as="geometry" />
        </mxCell>
        <mxCell id="2nprWiQmsi8HimYhADbn-16" value="W0" style="verticalLabelPosition=middle;verticalAlign=middle;html=1;shape=mxgraph.flowchart.or;labelPosition=right;align=left;" parent="1" vertex="1">
          <mxGeometry x="27" y="95" width="20" height="20" as="geometry" />
        </mxCell>
        <mxCell id="2nprWiQmsi8HimYhADbn-17" style="edgeStyle=orthogonalEdgeStyle;rounded=0;orthogonalLoop=1;jettySize=auto;html=1;exitX=1;exitY=0.5;exitDx=0;exitDy=0;exitPerimeter=0;entryX=0;entryY=0.5;entryDx=0;entryDy=0;" parent="1" source="2nprWiQmsi8HimYhADbn-18" target="2nprWiQmsi8HimYhADbn-20" edge="1">
          <mxGeometry relative="1" as="geometry" />
        </mxCell>
        <mxCell id="2nprWiQmsi8HimYhADbn-18" value="" style="verticalLabelPosition=bottom;verticalAlign=top;html=1;shape=mxgraph.flowchart.summing_function;" parent="1" vertex="1">
          <mxGeometry x="27" y="170" width="20" height="20" as="geometry" />
        </mxCell>
        <mxCell id="2nprWiQmsi8HimYhADbn-20" value="D" style="whiteSpace=wrap;html=1;aspect=fixed;" parent="1" vertex="1">
          <mxGeometry x="74" y="170" width="20" height="20" as="geometry" />
        </mxCell>
        <mxCell id="2nprWiQmsi8HimYhADbn-81" style="edgeStyle=orthogonalEdgeStyle;rounded=0;orthogonalLoop=1;jettySize=auto;html=1;exitX=0.5;exitY=1;exitDx=0;exitDy=0;exitPerimeter=0;entryX=0.5;entryY=0;entryDx=0;entryDy=0;" parent="1" source="2nprWiQmsi8HimYhADbn-40" target="2nprWiQmsi8HimYhADbn-76" edge="1">
          <mxGeometry relative="1" as="geometry" />
        </mxCell>
        <mxCell id="2nprWiQmsi8HimYhADbn-40" value="W1" style="verticalLabelPosition=middle;verticalAlign=middle;html=1;shape=mxgraph.flowchart.or;labelPosition=right;align=left;" parent="1" vertex="1">
          <mxGeometry x="121" y="95" width="20" height="20" as="geometry" />
        </mxCell>
        <mxCell id="2nprWiQmsi8HimYhADbn-41" style="edgeStyle=orthogonalEdgeStyle;rounded=0;orthogonalLoop=1;jettySize=auto;html=1;exitX=1;exitY=0.5;exitDx=0;exitDy=0;exitPerimeter=0;entryX=0;entryY=0.5;entryDx=0;entryDy=0;" parent="1" source="2nprWiQmsi8HimYhADbn-42" target="2nprWiQmsi8HimYhADbn-50" edge="1">
          <mxGeometry relative="1" as="geometry">
            <mxPoint x="171" y="179.50000000000023" as="targetPoint" />
          </mxGeometry>
        </mxCell>
        <mxCell id="2nprWiQmsi8HimYhADbn-42" value="" style="verticalLabelPosition=bottom;verticalAlign=top;html=1;shape=mxgraph.flowchart.summing_function;" parent="1" vertex="1">
          <mxGeometry x="121" y="170" width="20" height="20" as="geometry" />
        </mxCell>
        <mxCell id="2nprWiQmsi8HimYhADbn-46" style="edgeStyle=orthogonalEdgeStyle;rounded=0;orthogonalLoop=1;jettySize=auto;html=1;" parent="1" edge="1">
          <mxGeometry relative="1" as="geometry">
            <mxPoint x="94" y="180" as="sourcePoint" />
            <mxPoint x="121" y="180" as="targetPoint" />
          </mxGeometry>
        </mxCell>
        <mxCell id="2nprWiQmsi8HimYhADbn-50" value="3D" style="rounded=0;whiteSpace=wrap;html=1;" parent="1" vertex="1">
          <mxGeometry x="177" y="170" width="30" height="20" as="geometry" />
        </mxCell>
        <mxCell id="2nprWiQmsi8HimYhADbn-74" style="edgeStyle=orthogonalEdgeStyle;rounded=0;orthogonalLoop=1;jettySize=auto;html=1;exitX=0.5;exitY=1;exitDx=0;exitDy=0;exitPerimeter=0;entryX=0.5;entryY=0;entryDx=0;entryDy=0;" parent="1" source="2nprWiQmsi8HimYhADbn-51" target="2nprWiQmsi8HimYhADbn-73" edge="1">
          <mxGeometry relative="1" as="geometry" />
        </mxCell>
        <mxCell id="2nprWiQmsi8HimYhADbn-51" value="W2" style="verticalLabelPosition=middle;verticalAlign=middle;html=1;shape=mxgraph.flowchart.or;labelPosition=right;align=left;" parent="1" vertex="1">
          <mxGeometry x="239" y="95" width="20" height="20" as="geometry" />
        </mxCell>
        <mxCell id="2nprWiQmsi8HimYhADbn-52" style="edgeStyle=orthogonalEdgeStyle;rounded=0;orthogonalLoop=1;jettySize=auto;html=1;exitX=1;exitY=0.5;exitDx=0;exitDy=0;exitPerimeter=0;entryX=0;entryY=0.5;entryDx=0;entryDy=0;" parent="1" source="2nprWiQmsi8HimYhADbn-53" target="2nprWiQmsi8HimYhADbn-55" edge="1">
          <mxGeometry relative="1" as="geometry" />
        </mxCell>
        <mxCell id="2nprWiQmsi8HimYhADbn-53" value="" style="verticalLabelPosition=bottom;verticalAlign=top;html=1;shape=mxgraph.flowchart.summing_function;" parent="1" vertex="1">
          <mxGeometry x="239" y="170" width="20" height="20" as="geometry" />
        </mxCell>
        <mxCell id="2nprWiQmsi8HimYhADbn-55" value="D" style="whiteSpace=wrap;html=1;aspect=fixed;" parent="1" vertex="1">
          <mxGeometry x="286" y="170" width="20" height="20" as="geometry" />
        </mxCell>
        <mxCell id="2nprWiQmsi8HimYhADbn-83" style="edgeStyle=orthogonalEdgeStyle;rounded=0;orthogonalLoop=1;jettySize=auto;html=1;exitX=0.5;exitY=1;exitDx=0;exitDy=0;exitPerimeter=0;entryX=0.5;entryY=0;entryDx=0;entryDy=0;" parent="1" source="2nprWiQmsi8HimYhADbn-57" target="2nprWiQmsi8HimYhADbn-78" edge="1">
          <mxGeometry relative="1" as="geometry" />
        </mxCell>
        <mxCell id="2nprWiQmsi8HimYhADbn-57" value="W3" style="verticalLabelPosition=middle;verticalAlign=middle;html=1;shape=mxgraph.flowchart.or;labelPosition=right;align=left;" parent="1" vertex="1">
          <mxGeometry x="333" y="95" width="20" height="20" as="geometry" />
        </mxCell>
        <mxCell id="2nprWiQmsi8HimYhADbn-65" value="" style="edgeStyle=orthogonalEdgeStyle;rounded=0;orthogonalLoop=1;jettySize=auto;html=1;exitX=1;exitY=0.5;exitDx=0;exitDy=0;exitPerimeter=0;labelPosition=right;verticalLabelPosition=top;align=left;verticalAlign=bottom;spacingRight=0;spacingLeft=9;spacingBottom=3;" parent="1" source="2nprWiQmsi8HimYhADbn-58" edge="1">
          <mxGeometry relative="1" as="geometry">
            <mxPoint x="392" y="180.18181818181802" as="targetPoint" />
          </mxGeometry>
        </mxCell>
        <mxCell id="2nprWiQmsi8HimYhADbn-58" value="" style="verticalLabelPosition=bottom;verticalAlign=top;html=1;shape=mxgraph.flowchart.summing_function;" parent="1" vertex="1">
          <mxGeometry x="333" y="170" width="20" height="20" as="geometry" />
        </mxCell>
        <mxCell id="2nprWiQmsi8HimYhADbn-61" style="edgeStyle=orthogonalEdgeStyle;rounded=0;orthogonalLoop=1;jettySize=auto;html=1;" parent="1" edge="1">
          <mxGeometry relative="1" as="geometry">
            <mxPoint x="306" y="180" as="sourcePoint" />
            <mxPoint x="333" y="180" as="targetPoint" />
          </mxGeometry>
        </mxCell>
        <mxCell id="2nprWiQmsi8HimYhADbn-63" value="" style="endArrow=classic;html=1;rounded=0;entryX=0.5;entryY=0;entryDx=0;entryDy=0;entryPerimeter=0;labelPosition=left;verticalLabelPosition=top;align=right;verticalAlign=bottom;spacingRight=170;" parent="1" target="2nprWiQmsi8HimYhADbn-57" edge="1">
          <mxGeometry width="50" height="50" relative="1" as="geometry">
            <mxPoint y="65" as="sourcePoint" />
            <mxPoint x="160" y="55" as="targetPoint" />
            <Array as="points">
              <mxPoint x="343" y="65" />
            </Array>
          </mxGeometry>
        </mxCell>
        <mxCell id="2nprWiQmsi8HimYhADbn-66" style="edgeStyle=orthogonalEdgeStyle;rounded=0;orthogonalLoop=1;jettySize=auto;html=1;exitX=0.5;exitY=1;exitDx=0;exitDy=0;exitPerimeter=0;entryX=0.5;entryY=0;entryDx=0;entryDy=0;entryPerimeter=0;" parent="1" edge="1">
          <mxGeometry relative="1" as="geometry">
            <mxPoint x="36.769999999999996" y="65" as="sourcePoint" />
            <mxPoint x="36.769999999999996" y="95" as="targetPoint" />
          </mxGeometry>
        </mxCell>
        <mxCell id="2nprWiQmsi8HimYhADbn-67" style="edgeStyle=orthogonalEdgeStyle;rounded=0;orthogonalLoop=1;jettySize=auto;html=1;exitX=0.5;exitY=1;exitDx=0;exitDy=0;exitPerimeter=0;entryX=0.5;entryY=0;entryDx=0;entryDy=0;entryPerimeter=0;" parent="1" edge="1">
          <mxGeometry relative="1" as="geometry">
            <mxPoint x="130.76999999999998" y="65" as="sourcePoint" />
            <mxPoint x="130.76999999999998" y="95" as="targetPoint" />
          </mxGeometry>
        </mxCell>
        <mxCell id="2nprWiQmsi8HimYhADbn-68" style="edgeStyle=orthogonalEdgeStyle;rounded=0;orthogonalLoop=1;jettySize=auto;html=1;exitX=0.5;exitY=1;exitDx=0;exitDy=0;exitPerimeter=0;entryX=0.5;entryY=0;entryDx=0;entryDy=0;entryPerimeter=0;" parent="1" edge="1">
          <mxGeometry relative="1" as="geometry">
            <mxPoint x="248.76999999999998" y="65" as="sourcePoint" />
            <mxPoint x="248.76999999999998" y="95" as="targetPoint" />
          </mxGeometry>
        </mxCell>
        <mxCell id="2nprWiQmsi8HimYhADbn-70" value="0" style="edgeStyle=orthogonalEdgeStyle;rounded=0;orthogonalLoop=1;jettySize=auto;html=1;labelPosition=left;verticalLabelPosition=top;align=right;verticalAlign=bottom;spacingRight=10;" parent="1" edge="1">
          <mxGeometry x="-0.0007" relative="1" as="geometry">
            <mxPoint x="-3" y="180" as="sourcePoint" />
            <mxPoint x="27" y="179.81" as="targetPoint" />
            <mxPoint as="offset" />
          </mxGeometry>
        </mxCell>
        <mxCell id="2nprWiQmsi8HimYhADbn-73" value="D" style="whiteSpace=wrap;html=1;aspect=fixed;" parent="1" vertex="1">
          <mxGeometry x="239" y="133" width="20" height="20" as="geometry" />
        </mxCell>
        <mxCell id="2nprWiQmsi8HimYhADbn-75" style="edgeStyle=orthogonalEdgeStyle;rounded=0;orthogonalLoop=1;jettySize=auto;html=1;exitX=0.5;exitY=1;exitDx=0;exitDy=0;entryX=0.5;entryY=0;entryDx=0;entryDy=0;entryPerimeter=0;" parent="1" source="2nprWiQmsi8HimYhADbn-73" target="2nprWiQmsi8HimYhADbn-53" edge="1">
          <mxGeometry relative="1" as="geometry" />
        </mxCell>
        <mxCell id="2nprWiQmsi8HimYhADbn-76" value="D" style="whiteSpace=wrap;html=1;aspect=fixed;" parent="1" vertex="1">
          <mxGeometry x="121" y="133" width="20" height="20" as="geometry" />
        </mxCell>
        <mxCell id="2nprWiQmsi8HimYhADbn-77" value="D" style="whiteSpace=wrap;html=1;aspect=fixed;" parent="1" vertex="1">
          <mxGeometry x="27" y="133" width="20" height="20" as="geometry" />
        </mxCell>
        <mxCell id="2nprWiQmsi8HimYhADbn-78" value="D" style="whiteSpace=wrap;html=1;aspect=fixed;" parent="1" vertex="1">
          <mxGeometry x="333" y="133" width="20" height="20" as="geometry" />
        </mxCell>
        <mxCell id="2nprWiQmsi8HimYhADbn-80" style="edgeStyle=orthogonalEdgeStyle;rounded=0;orthogonalLoop=1;jettySize=auto;html=1;exitX=0.5;exitY=1;exitDx=0;exitDy=0;entryX=0.5;entryY=0;entryDx=0;entryDy=0;entryPerimeter=0;" parent="1" source="2nprWiQmsi8HimYhADbn-77" target="2nprWiQmsi8HimYhADbn-18" edge="1">
          <mxGeometry relative="1" as="geometry" />
        </mxCell>
        <mxCell id="2nprWiQmsi8HimYhADbn-82" style="edgeStyle=orthogonalEdgeStyle;rounded=0;orthogonalLoop=1;jettySize=auto;html=1;exitX=0.5;exitY=1;exitDx=0;exitDy=0;entryX=0.5;entryY=0;entryDx=0;entryDy=0;entryPerimeter=0;" parent="1" source="2nprWiQmsi8HimYhADbn-76" target="2nprWiQmsi8HimYhADbn-42" edge="1">
          <mxGeometry relative="1" as="geometry" />
        </mxCell>
        <mxCell id="2nprWiQmsi8HimYhADbn-84" style="edgeStyle=orthogonalEdgeStyle;rounded=0;orthogonalLoop=1;jettySize=auto;html=1;exitX=0.5;exitY=1;exitDx=0;exitDy=0;entryX=0.5;entryY=0;entryDx=0;entryDy=0;entryPerimeter=0;" parent="1" source="2nprWiQmsi8HimYhADbn-78" target="2nprWiQmsi8HimYhADbn-58" edge="1">
          <mxGeometry relative="1" as="geometry" />
        </mxCell>
        <mxCell id="KT24e44TtAW74R7X00fj-1" style="edgeStyle=orthogonalEdgeStyle;rounded=0;orthogonalLoop=1;jettySize=auto;html=1;exitX=1;exitY=0.5;exitDx=0;exitDy=0;entryX=0;entryY=0.5;entryDx=0;entryDy=0;entryPerimeter=0;" edge="1" parent="1" source="2nprWiQmsi8HimYhADbn-50" target="2nprWiQmsi8HimYhADbn-53">
          <mxGeometry relative="1" as="geometry" />
        </mxCell>
      </root>
    </mxGraphModel>
  </diagram>
</mxfile>
